HIERARCHY
ROOT Hips
{
	OFFSET -30.774294 -42.871696 87.563606
	CHANNELS 6 Xposition Yposition Zposition Zrotation Yrotation Xrotation
	JOINT Spine
	{
		OFFSET 0.000000 2.080109 8.814247
		CHANNELS 6 Xposition Yposition Zposition Zrotation Yrotation Xrotation
		JOINT Spine1
		{
			OFFSET 0.000000 0.000000 8.844139
			CHANNELS 6 Xposition Yposition Zposition Zrotation Yrotation Xrotation
			JOINT Spine2
			{
				OFFSET 0.000000 0.000000 11.682266
				CHANNELS 6 Xposition Yposition Zposition Zrotation Yrotation Xrotation
				JOINT Spine3
				{
					OFFSET 0.000000 0.000004 11.746696
					CHANNELS 6 Xposition Yposition Zposition Zrotation Yrotation Xrotation
					JOINT Neck
					{
						OFFSET 0.000000 0.000000 17.658264
						CHANNELS 6 Xposition Yposition Zposition Zrotation Yrotation Xrotation
						JOINT Neck1
						{
							OFFSET 0.000000 0.000000 5.101517
							CHANNELS 6 Xposition Yposition Zposition Zrotation Yrotation Xrotation
							JOINT Head
							{
								OFFSET 0.000000 0.000000 5.101517
								CHANNELS 6 Xposition Yposition Zposition Zrotation Yrotation Xrotation
								JOINT HeadEnd
								{
									OFFSET 0.000000 0.000000 11.655090
									CHANNELS 6 Xposition Yposition Zposition Zrotation Yrotation Xrotation
									End Site
									{
										OFFSET 0.000000 0.000000 0.100006
									}
								}
							}
						}
					}
					JOINT RightShoulder
					{
						OFFSET -2.625387 0.000000 11.175217
						CHANNELS 6 Xposition Yposition Zposition Zrotation Yrotation Xrotation
						JOINT RightArm
						{
							OFFSET 0.000000 0.000000 10.434723
							CHANNELS 6 Xposition Yposition Zposition Zrotation Yrotation Xrotation
							JOINT RightForeArm
							{
								OFFSET 0.000000 0.000004 29.628418
								CHANNELS 6 Xposition Yposition Zposition Zrotation Yrotation Xrotation
								JOINT RightHand
								{
									OFFSET 0.000000 0.000000 22.857605
									CHANNELS 6 Xposition Yposition Zposition Zrotation Yrotation Xrotation
									JOINT RightHandThumb1
									{
										OFFSET -2.867325 -2.944290 3.959564
										CHANNELS 6 Xposition Yposition Zposition Zrotation Yrotation Xrotation
										JOINT RightHandThumb2
										{
											OFFSET 0.000000 0.000000 3.350403
											CHANNELS 6 Xposition Yposition Zposition Zrotation Yrotation Xrotation
											JOINT RightHandThumb3
											{
												OFFSET 0.000000 0.000000 3.756516
												CHANNELS 6 Xposition Yposition Zposition Zrotation Yrotation Xrotation
												JOINT RightHandThumb4
												{
													OFFSET 0.000000 0.000000 3.147339
													CHANNELS 6 Xposition Yposition Zposition Zrotation Yrotation Xrotation
													End Site
													{
														OFFSET 0.000000 0.000000 0.100006
													}
												}
											}
										}
									}
									JOINT RightHandIndex1
									{
										OFFSET -0.086754 -2.345280 10.030899
										CHANNELS 6 Xposition Yposition Zposition Zrotation Yrotation Xrotation
										JOINT RightHandIndex2
										{
											OFFSET 0.000000 0.000000 4.061096
											CHANNELS 6 Xposition Yposition Zposition Zrotation Yrotation Xrotation
											JOINT RightHandIndex3
											{
												OFFSET 0.000000 0.000000 3.248871
												CHANNELS 6 Xposition Yposition Zposition Zrotation Yrotation Xrotation
												JOINT RightHandIndex4
												{
													OFFSET 0.000000 0.000000 2.639709
													CHANNELS 6 Xposition Yposition Zposition Zrotation Yrotation Xrotation
													End Site
													{
														OFFSET 0.000000 0.000000 0.100006
													}
												}
											}
										}
									}
									JOINT RightHandMiddle1
									{
										OFFSET 0.104103 -0.006767 9.502945
										CHANNELS 6 Xposition Yposition Zposition Zrotation Yrotation Xrotation
										JOINT RightHandMiddle2
										{
											OFFSET 0.000000 0.000000 4.568726
											CHANNELS 6 Xposition Yposition Zposition Zrotation Yrotation Xrotation
											JOINT RightHandMiddle3
											{
												OFFSET 0.000000 0.000000 3.654984
												CHANNELS 6 Xposition Yposition Zposition Zrotation Yrotation Xrotation
												JOINT RightHandMiddle4
												{
													OFFSET 0.000000 0.000000 2.741241
													CHANNELS 6 Xposition Yposition Zposition Zrotation Yrotation Xrotation
													End Site
													{
														OFFSET 0.000000 0.000000 0.100006
													}
												}
											}
										}
									}
									JOINT RightHandRing1
									{
										OFFSET 0.086754 2.267441 8.921707
										CHANNELS 6 Xposition Yposition Zposition Zrotation Yrotation Xrotation
										JOINT RightHandRing2
										{
											OFFSET 0.000000 0.000000 4.061096
											CHANNELS 6 Xposition Yposition Zposition Zrotation Yrotation Xrotation
											JOINT RightHandRing3
											{
												OFFSET 0.000000 0.000000 3.654984
												CHANNELS 6 Xposition Yposition Zposition Zrotation Yrotation Xrotation
												JOINT RightHandRing4
												{
													OFFSET 0.000000 0.000000 2.741241
													CHANNELS 6 Xposition Yposition Zposition Zrotation Yrotation Xrotation
													End Site
													{
														OFFSET 0.000000 0.000000 0.100006
													}
												}
											}
										}
									}
									JOINT RightHandPinky1
									{
										OFFSET -0.173504 4.467197 7.976990
										CHANNELS 6 Xposition Yposition Zposition Zrotation Yrotation Xrotation
										JOINT RightHandPinky2
										{
											OFFSET 0.000000 0.000000 3.350403
											CHANNELS 6 Xposition Yposition Zposition Zrotation Yrotation Xrotation
											JOINT RightHandPinky3
											{
												OFFSET 0.000000 0.000000 2.842758
												CHANNELS 6 Xposition Yposition Zposition Zrotation Yrotation Xrotation
												JOINT RightHandPinky4
												{
													OFFSET 0.000000 0.000000 2.639709
													CHANNELS 6 Xposition Yposition Zposition Zrotation Yrotation Xrotation
													End Site
													{
														OFFSET 0.000000 0.000000 0.100006
													}
												}
											}
										}
									}
									JOINT RightForeArmEnd
									{
										OFFSET 0.000000 0.000000 0.000000
										CHANNELS 6 Xposition Yposition Zposition Zrotation Yrotation Xrotation
										End Site
										{
											OFFSET 0.000000 0.000000 0.100006
										}
									}
								}
								JOINT RightArmEnd
								{
									OFFSET 0.000000 0.000000 0.000000
									CHANNELS 6 Xposition Yposition Zposition Zrotation Yrotation Xrotation
									End Site
									{
										OFFSET 0.000000 0.000000 0.100006
									}
								}
							}
						}
					}
					JOINT LeftShoulder
					{
						OFFSET 2.625389 0.000000 11.175217
						CHANNELS 6 Xposition Yposition Zposition Zrotation Yrotation Xrotation
						JOINT LeftArm
						{
							OFFSET 0.000000 0.000000 10.813629
							CHANNELS 6 Xposition Yposition Zposition Zrotation Yrotation Xrotation
							JOINT LeftForeArm
							{
								OFFSET 0.000000 0.000004 28.724777
								CHANNELS 6 Xposition Yposition Zposition Zrotation Yrotation Xrotation
								JOINT LeftHand
								{
									OFFSET 0.644384 0.328873 25.716171
									CHANNELS 6 Xposition Yposition Zposition Zrotation Yrotation Xrotation
									JOINT LeftHandThumb1
									{
										OFFSET 2.867323 -2.944290 3.959564
										CHANNELS 6 Xposition Yposition Zposition Zrotation Yrotation Xrotation
										JOINT LeftHandThumb2
										{
											OFFSET 0.000000 0.000000 3.350403
											CHANNELS 6 Xposition Yposition Zposition Zrotation Yrotation Xrotation
											JOINT LeftHandThumb3
											{
												OFFSET 0.000000 0.000000 3.756516
												CHANNELS 6 Xposition Yposition Zposition Zrotation Yrotation Xrotation
												JOINT LeftHandThumb4
												{
													OFFSET 0.000000 0.000000 3.100006
													CHANNELS 6 Xposition Yposition Zposition Zrotation Yrotation Xrotation
													End Site
													{
														OFFSET 0.000000 0.000000 0.100006
													}
												}
											}
										}
									}
									JOINT LeftHandIndex1
									{
										OFFSET 0.086752 -2.345280 10.030899
										CHANNELS 6 Xposition Yposition Zposition Zrotation Yrotation Xrotation
										JOINT LeftHandIndex2
										{
											OFFSET 0.000000 0.000000 4.061096
											CHANNELS 6 Xposition Yposition Zposition Zrotation Yrotation Xrotation
											JOINT LeftHandIndex3
											{
												OFFSET 0.000000 0.000000 3.248871
												CHANNELS 6 Xposition Yposition Zposition Zrotation Yrotation Xrotation
												JOINT LeftHandIndex4
												{
													OFFSET 0.000000 0.000000 2.639709
													CHANNELS 6 Xposition Yposition Zposition Zrotation Yrotation Xrotation
													End Site
													{
														OFFSET 0.000000 0.000000 0.100006
													}
												}
											}
										}
									}
									JOINT LeftHandMiddle1
									{
										OFFSET -0.104101 -0.006767 9.502945
										CHANNELS 6 Xposition Yposition Zposition Zrotation Yrotation Xrotation
										JOINT LeftHandMiddle2
										{
											OFFSET 0.000000 0.000000 4.568726
											CHANNELS 6 Xposition Yposition Zposition Zrotation Yrotation Xrotation
											JOINT LeftHandMiddle3
											{
												OFFSET 0.000000 0.000000 3.654984
												CHANNELS 6 Xposition Yposition Zposition Zrotation Yrotation Xrotation
												JOINT LeftHandMiddle4
												{
													OFFSET 0.000000 0.000000 2.741241
													CHANNELS 6 Xposition Yposition Zposition Zrotation Yrotation Xrotation
													End Site
													{
														OFFSET 0.000000 0.000000 0.100006
													}
												}
											}
										}
									}
									JOINT LeftHandRing1
									{
										OFFSET -0.086752 2.267441 8.921707
										CHANNELS 6 Xposition Yposition Zposition Zrotation Yrotation Xrotation
										JOINT LeftHandRing2
										{
											OFFSET 0.000000 0.000000 4.061096
											CHANNELS 6 Xposition Yposition Zposition Zrotation Yrotation Xrotation
											JOINT LeftHandRing3
											{
												OFFSET 0.000000 0.000000 3.654984
												CHANNELS 6 Xposition Yposition Zposition Zrotation Yrotation Xrotation
												JOINT LeftHandRing4
												{
													OFFSET 0.000000 0.000000 2.741241
													CHANNELS 6 Xposition Yposition Zposition Zrotation Yrotation Xrotation
													End Site
													{
														OFFSET 0.000000 0.000000 0.100006
													}
												}
											}
										}
									}
									JOINT LeftHandPinky1
									{
										OFFSET 0.173504 4.467197 7.976990
										CHANNELS 6 Xposition Yposition Zposition Zrotation Yrotation Xrotation
										JOINT LeftHandPinky2
										{
											OFFSET 0.000000 0.000000 3.350403
											CHANNELS 6 Xposition Yposition Zposition Zrotation Yrotation Xrotation
											JOINT LeftHandPinky3
											{
												OFFSET 0.000000 0.000000 2.842758
												CHANNELS 6 Xposition Yposition Zposition Zrotation Yrotation Xrotation
												JOINT LeftHandPinky4
												{
													OFFSET 0.000000 0.000000 2.639709
													CHANNELS 6 Xposition Yposition Zposition Zrotation Yrotation Xrotation
													End Site
													{
														OFFSET 0.000000 0.000000 0.100006
													}
												}
											}
										}
									}
									JOINT LeftForeArmEnd
									{
										OFFSET 0.000000 0.000000 0.000000
										CHANNELS 6 Xposition Yposition Zposition Zrotation Yrotation Xrotation
										End Site
										{
											OFFSET 0.000000 0.000000 0.100006
										}
									}
								}
								JOINT LeftArmEnd
								{
									OFFSET 0.000000 0.000000 0.000000
									CHANNELS 6 Xposition Yposition Zposition Zrotation Yrotation Xrotation
									End Site
									{
										OFFSET 0.000000 0.000000 0.100006
									}
								}
							}
						}
					}
				}
			}
		}
	}
	JOINT RightUpLeg
	{
		OFFSET -11.289942 0.000000 0.000000
		CHANNELS 6 Xposition Yposition Zposition Zrotation Yrotation Xrotation
		JOINT RightLeg
		{
			OFFSET 0.000000 -0.000004 -38.200321
			CHANNELS 6 Xposition Yposition Zposition Zrotation Yrotation Xrotation
			JOINT RightFoot
			{
				OFFSET 0.000000 -0.000004 -39.900856
				CHANNELS 6 Xposition Yposition Zposition Zrotation Yrotation Xrotation
				JOINT RightToeBase
				{
					OFFSET 0.000000 -15.261642 0.000002
					CHANNELS 6 Xposition Yposition Zposition Zrotation Yrotation Xrotation
					JOINT RightToeBaseEnd
					{
						OFFSET 0.000000 -7.370712 0.000000
						CHANNELS 6 Xposition Yposition Zposition Zrotation Yrotation Xrotation
						End Site
						{
							OFFSET 0.000000 0.000000 0.100000
						}
					}
				}
				JOINT RightLegEnd
				{
					OFFSET 0.000000 0.000000 0.000000
					CHANNELS 6 Xposition Yposition Zposition Zrotation Yrotation Xrotation
					End Site
					{
						OFFSET 0.000000 0.000000 0.100000
					}
				}
			}
			JOINT RightUpLegEnd
			{
				OFFSET 0.000000 0.000000 0.000000
				CHANNELS 6 Xposition Yposition Zposition Zrotation Yrotation Xrotation
				End Site
				{
					OFFSET 0.000000 0.000000 0.099998
				}
			}
		}
	}
	JOINT LeftUpLeg
	{
		OFFSET 11.315660 0.000000 0.000000
		CHANNELS 6 Xposition Yposition Zposition Zrotation Yrotation Xrotation
		JOINT LeftLeg
		{
			OFFSET 0.000000 -0.000004 -38.200321
			CHANNELS 6 Xposition Yposition Zposition Zrotation Yrotation Xrotation
			JOINT LeftFoot
			{
				OFFSET 0.000000 -0.000004 -39.900856
				CHANNELS 6 Xposition Yposition Zposition Zrotation Yrotation Xrotation
				JOINT LeftToeBase
				{
					OFFSET 0.000000 -15.261642 0.000002
					CHANNELS 6 Xposition Yposition Zposition Zrotation Yrotation Xrotation
					JOINT LeftToeBaseEnd
					{
						OFFSET 0.000000 -7.539993 0.000000
						CHANNELS 6 Xposition Yposition Zposition Zrotation Yrotation Xrotation
						End Site
						{
							OFFSET 0.000000 0.000000 0.100000
						}
					}
				}
				JOINT LeftLegEnd
				{
					OFFSET 0.000000 0.000000 0.000000
					CHANNELS 6 Xposition Yposition Zposition Zrotation Yrotation Xrotation
					End Site
					{
						OFFSET 0.000000 0.000000 0.100000
					}
				}
			}
			JOINT LeftUpLegEnd
			{
				OFFSET 0.000000 0.000000 0.000000
				CHANNELS 6 Xposition Yposition Zposition Zrotation Yrotation Xrotation
				End Site
				{
					OFFSET 0.000000 0.000000 0.099998
				}
			}
		}
	}
}
MOTION
Frames: 2
Frame Time: 0.016667
10.627890 -11.220676 86.118202 11.654365 -3.244118 -19.879209 -0.000003 2.080104 8.814258 2.075654 6.310618 5.147150 -0.000004 -0.000007 8.844123 -5.435254 -13.287441 13.008970 0.000007 -0.000002 11.682266 5.188279 16.840461 7.977993 -0.000002 0.000004 11.746715 -0.258839 -2.063504 -0.706403 0.000000 -0.000001 17.658274 -1.507777 -4.485289 6.291114 0.000001 0.000005 5.101518 -3.205167 4.027156 -10.554731 0.000000 0.000001 5.101544 3.370005 -1.178617 -22.842968 -0.000004 0.000009 11.655090 -0.000000 0.000000 -0.000001 -2.625386 0.000000 11.175197 7.043772 -97.618894 -0.210507 -0.000002 0.000002 10.434740 -47.581427 -51.657827 39.193343 -0.000007 0.000001 29.628429 12.027366 -3.551086 29.778450 0.000005 -0.000001 22.857586 4.820219 8.725046 -14.547053 -2.867313 -2.944292 3.959551 31.678018 -22.563414 43.884549 0.000010 0.000005 3.350405 -24.496631 11.026082 -42.059960 0.000013 0.000007 3.756532 -16.165755 9.630621 -28.648634 -0.000000 -0.000003 3.147365 0.000000 -0.000006 0.000001 -0.086747 -2.345279 10.030879 -29.460949 -53.794922 20.796377 -0.000002 -0.000002 4.061126 -1.916070 -39.665654 6.692262 -0.000010 0.000001 3.248888 -2.416031 -39.665395 6.692203 -0.000002 -0.000001 2.639723 0.000001 -0.000001 0.000001 0.104110 -0.006770 9.502930 -20.872910 -54.755718 16.350076 0.000004 0.000005 4.568719 -0.406561 -39.772311 2.501574 0.000004 -0.000001 3.654978 -0.907499 -39.771942 2.502139 -0.000005 0.000000 2.741255 0.000001 -0.000001 0.000002 0.086769 2.267442 8.921689 -7.695311 -58.284764 9.424170 0.000011 -0.000001 4.061105 0.138636 -40.982644 -3.046242 -0.000010 0.000000 3.655007 1.140006 -40.982614 -3.047508 0.000006 -0.000001 2.741240 0.000000 -0.000004 -0.000001 -0.173505 4.467197 7.976980 8.547261 -57.959087 -0.095036 -0.000009 0.000003 3.350434 1.221245 -39.040757 -9.069647 -0.000016 -0.000001 2.842780 3.221255 -39.040777 -9.069684 0.000004 -0.000005 2.639709 0.000000 0.000000 0.000000 0.000009 -0.000001 -0.000013 -0.000002 0.000002 -0.000001 0.000001 -0.000003 -0.000015 0.000000 -0.000002 -0.000002 2.625381 0.000001 11.175213 -7.553057 92.122156 -1.054953 -0.000006 -0.000001 10.813633 53.269414 38.352076 40.672404 -0.000001 0.000008 28.724794 2.703887 -1.341126 45.653394 0.644384 0.328875 25.716171 1.674928 -10.587648 -27.428476 2.867331 -2.944282 3.959581 -31.678038 22.563346 43.884543 -0.000005 0.000007 3.350413 24.496631 -11.026058 -42.060004 0.000005 0.000004 3.756529 16.165753 -9.630634 -28.648604 -0.000010 0.000002 3.100007 -0.000001 0.000001 -0.000000 0.086752 -2.345272 10.030916 0.918289 58.955078 -12.133634 0.000001 -0.000009 4.061101 -2.355650 42.356749 -7.361945 0.000011 0.000004 3.248866 -2.855649 42.356742 -7.361925 -0.000001 -0.000001 2.639696 -0.000001 0.000001 -0.000002 -0.104088 -0.006763 9.502961 11.145178 60.953004 1.107289 0.000008 0.000002 4.568726 -0.644403 43.541872 -2.860686 0.000015 0.000004 3.654980 -1.151618 43.541773 -2.870142 -0.000004 0.000002 2.741254 0.000002 0.000001 0.000004 -0.086731 2.267442 8.921729 33.647168 64.479574 32.134753 0.000024 -0.000000 4.061097 0.732806 47.981481 3.900231 0.000023 0.000001 3.654982 1.737795 47.981423 3.904371 0.000002 0.000002 2.741240 0.000002 -0.000002 0.000001 0.173522 4.467194 7.977012 46.762228 58.938249 56.643514 -0.000008 -0.000002 3.350413 3.745461 48.527968 12.704528 0.000022 0.000001 2.842762 5.745462 48.527972 12.704549 -0.000004 -0.000000 2.639709 0.000001 0.000001 0.000002 0.000007 -0.000001 0.000014 -0.000002 -0.000001 0.000000 -0.000004 -0.000001 -0.000015 0.000000 0.000001 -0.000000 -11.289941 -0.000007 0.000021 -10.706236 14.418835 22.404248 -0.000001 -0.000010 -38.200329 -1.151781 0.355807 17.164996 0.000001 -0.000001 -39.900852 -17.985555 -6.267884 11.096219 0.000002 -15.261650 0.000005 -1.156941 1.107221 -26.607567 0.000000 -7.370718 0.000001 -0.000003 0.000001 0.000000 0.000001 -0.000003 0.000002 -0.000000 0.000000 -0.000000 -0.000000 -0.000001 0.000010 0.000000 -0.000000 0.000002 11.315657 -0.000009 0.000008 -1.731102 0.296590 18.412990 -0.000001 -0.000015 -38.200321 0.629240 -0.173012 15.373183 -0.000001 -0.000006 -39.900856 -3.712067 -3.418428 11.584219 0.000001 -15.261647 0.000004 0.118038 0.113649 -26.215982 -0.000002 -7.540001 0.000001 0.000000 0.000000 0.000000 -0.000000 -0.000000 0.000000 0.000000 -0.000001 0.000002 -0.000002 -0.000009 0.000011 0.000000 -0.000000 0.000001 
11.170637 -11.140362 86.102089 11.157964 -3.394746 -19.999267 0.000001 2.080103 8.814266 2.146111 6.386281 5.204069 -0.000002 0.000001 8.844128 -5.466920 -13.332034 13.154638 0.000000 -0.000001 11.682261 5.292216 17.038638 7.828774 -0.000001 0.000003 11.746715 -0.214155 -2.081931 -0.742127 0.000003 -0.000001 17.658262 -1.575836 -4.610887 6.155120 -0.000000 0.000005 5.101515 -3.201801 4.008999 -10.699870 -0.000001 0.000000 5.101544 3.340453 -1.230456 -22.654380 -0.000001 -0.000009 11.655090 0.000002 -0.000000 0.000000 -2.625394 -0.000000 11.175183 7.449133 -97.437648 -0.216019 0.000004 0.000001 10.434718 -47.113873 -51.681828 39.138094 -0.000007 0.000004 29.628424 11.741218 -3.527429 29.265264 0.000001 -0.000001 22.857578 5.007934 8.318354 -14.654842 -2.867323 -2.944296 3.959601 31.678011 -22.563402 43.884573 0.000010 0.000000 3.350405 -24.496602 11.026069 -42.059970 0.000003 0.000011 3.756519 -16.165757 9.630625 -28.648634 0.000003 0.000005 3.147337 0.000000 -0.000002 0.000000 -0.086769 -2.345280 10.030913 -29.420555 -53.773567 20.337303 0.000002 0.000000 4.061101 -1.906369 -39.601860 6.677070 -0.000007 -0.000002 3.248889 -2.406378 -39.601847 6.677058 -0.000010 -0.000004 2.639712 -0.000001 0.000002 -0.000001 0.104071 -0.006768 9.502968 -20.818965 -54.689598 15.859339 -0.000002 -0.000000 4.568731 -0.400512 -39.702220 2.493924 -0.000001 -0.000005 3.654981 -0.900498 -39.702257 2.493912 -0.000008 -0.000000 2.741257 0.000003 -0.000001 -0.000002 0.086755 2.267441 8.921730 -7.647413 -58.155454 8.922780 -0.000005 -0.000002 4.061108 0.133832 -40.916187 -3.038715 0.000005 -0.000002 3.654978 1.133841 -40.916177 -3.038730 0.000002 -0.000001 2.741240 0.000001 0.000001 0.000003 -0.173510 4.467197 7.977009 8.541822 -57.779193 -0.547244 -0.000027 0.000002 3.350424 1.211144 -38.991528 -9.053607 -0.000012 0.000002 2.842773 3.211139 -38.991528 -9.053600 -0.000007 -0.000005 2.639705 0.000000 -0.000001 0.000005 -0.000001 -0.000003 0.000028 0.000001 -0.000005 -0.000000 0.000002 0.000000 0.000001 -0.000001 -0.000001 -0.000002 2.625409 -0.000001 11.175202 -7.786022 92.105743 -1.082265 0.000027 -0.000003 10.813633 52.802318 38.077902 40.744913 -0.000007 0.000006 28.724768 3.153764 -1.548410 45.705867 0.644382 0.328889 25.716173 1.571910 -10.352479 -27.607652 2.867332 -2.944296 3.959567 -31.678038 22.563330 43.884536 -0.000001 0.000003 3.350408 24.496624 -11.026061 -42.059994 0.000006 0.000007 3.756519 16.165762 -9.630621 -28.648604 0.000001 -0.000002 3.100007 -0.000001 0.000002 -0.000000 0.086761 -2.345282 10.030903 0.885563 58.849969 -12.017205 0.000006 -0.000000 4.061088 -2.340603 42.270388 -7.339567 0.000011 -0.000003 3.248866 -2.840594 42.270436 -7.339582 0.000011 -0.000003 2.639710 -0.000001 0.000002 0.000001 -0.104092 -0.006770 9.502946 11.108377 60.889395 1.174044 0.000007 0.000008 4.568724 -0.643338 43.491708 -2.859131 0.000012 0.000000 3.655001 -1.153225 43.491571 -2.872731 0.000012 -0.000000 2.741240 0.000002 -0.000000 0.000002 -0.086736 2.267438 8.921710 33.694044 64.508910 32.157603 0.000010 0.000001 4.061087 0.735234 48.005322 3.902727 0.000028 -0.000001 3.654993 1.739398 48.004984 3.908896 -0.000001 0.000004 2.741227 0.000001 -0.000000 -0.000002 0.173528 4.467201 7.976986 47.016464 59.052108 56.697674 -0.000004 -0.000003 3.350409 3.775832 48.616976 12.745044 -0.000002 0.000001 2.842779 5.775843 48.616969 12.745042 -0.000005 0.000009 2.639710 0.000001 -0.000001 -0.000001 0.000006 -0.000004 -0.000015 0.000003 -0.000000 -0.000001 -0.000005 -0.000006 0.000002 -0.000001 0.000002 -0.000002 -11.289943 -0.000008 0.000017 -10.188178 14.888264 21.985889 0.000001 -0.000005 -38.200317 -1.129142 0.365498 17.934292 0.000003 -0.000005 -39.900848 -17.726901 -6.672469 11.212480 0.000002 -15.261647 0.000009 -1.203895 1.130448 -26.576655 -0.000001 -7.370719 0.000001 -0.000001 -0.000000 0.000000 0.000000 -0.000003 0.000002 -0.000001 -0.000000 -0.000002 -0.000000 0.000002 0.000003 0.000000 -0.000001 -0.000000 11.315660 -0.000012 0.000014 -1.600698 0.912765 18.611128 0.000000 -0.000012 -38.200329 0.600718 -0.165923 15.430138 0.000000 -0.000006 -39.900856 -3.031987 -3.745787 11.487974 -0.000005 -15.261649 0.000006 0.124039 0.117038 -26.174752 -0.000003 -7.540001 0.000001 0.000000 0.000000 -0.000000 -0.000006 -0.000004 0.000000 -0.000001 -0.000000 0.000003 0.000001 0.000000 0.000004 0.000000 -0.000000 -0.000000 
